PathFileType	4	(X/Y/Z)	C:/Users/opensim2020/Desktop/walking_exp_matlab/subject06_walking15_straight_01.trc	
DataRate	CameraRate	NumFrames	NumMarkers	Units	OrigDataRate	OrigDataStartFrame	OrigNumFrames	
100.00	100.00	6	47	mm	100.00	863	232	
Frame#	Time	LFHD			RFHD			LBHD			RBHD			C7			T10			CLAV			STRN			RBAK			LSHO			LUPA			LELB			LFRM			LWRA			LWRB			LFIN			RSHO			RUPA			RELB			RFRM			RWRA			RWRB			RFIN			LASI			RASI			LPSI			RPSI			LTHI			LKNE			LTIB			LANK			LHEE			LTOE			RTHI			RKNE			RTIB			RANK			RHEE			RTOE			*39			*40			*41			*42			*43			*44			*45			*46			
		X1	Y1	Z1	X2	Y2	Z2	X3	Y3	Z3	X4	Y4	Z4	X5	Y5	Z5	X6	Y6	Z6	X7	Y7	Z7	X8	Y8	Z8	X9	Y9	Z9	X10	Y10	Z10	X11	Y11	Z11	X12	Y12	Z12	X13	Y13	Z13	X14	Y14	Z14	X15	Y15	Z15	X16	Y16	Z16	X17	Y17	Z17	X18	Y18	Z18	X19	Y19	Z19	X20	Y20	Z20	X21	Y21	Z21	X22	Y22	Z22	X23	Y23	Z23	X24	Y24	Z24	X25	Y25	Z25	X26	Y26	Z26	X27	Y27	Z27	X28	Y28	Z28	X29	Y29	Z29	X30	Y30	Z30	X31	Y31	Z31	X32	Y32	Z32	X33	Y33	Z33	X34	Y34	Z34	X35	Y35	Z35	X36	Y36	Z36	X37	Y37	Z37	X38	Y38	Z38	X39	Y39	Z39	X40	Y40	Z40	X41	Y41	Z41	X42	Y42	Z42	X43	Y43	Z43	X44	Y44	Z44	X45	Y45	Z45	X46	Y46	Z46	X47	Y47	Z47	

88	0.870	1356.77319	-370.75378	1637.79041	1488.40381	-359.14172	1638.56323	1372.78271	-501.65881	1579.55090	1501.83435	-489.06003	1585.39246	1437.97864	-493.70517	1428.52002	1464.04370	-528.45355	1100.97229	1437.03552	-379.00754	1353.50647	1440.04321	-338.03610	1179.92053	1530.77649	-562.66522	1263.96411	1275.59180	-445.83026	1374.96338	1217.41943	-488.29669	1174.94165	1214.61792	-518.92419	1066.72205	1195.69482	-530.33307	916.31592	1229.98645	-488.45236	791.94019	1204.63782	-555.66193	799.72998	1199.84668	-532.91241	711.35437	1597.84460	-422.45242	1393.03345	1700.68665	-448.64713	1201.03296	1722.33643	-425.72733	1084.07190	1740.39929	-366.18451	982.72589	1704.16003	-252.44884	886.89343	1745.95667	-299.47498	864.06927	1748.23279	-232.00218	815.18890	1362.63843	-342.49677	946.81140	1579.62354	-358.19766	949.39630	1378.40369	-503.79431	964.63165	1546.62268	-507.30780	971.54620	1291.88660	-342.22064	636.31470	1322.78564	-291.07214	485.10077	1328.60461	-254.66125	230.96834	1367.26624	-201.11195	67.28126	1416.28625	-233.62581	47.46976	1368.46484	-52.39954	63.85439	1623.92957	-459.35077	612.05011	1602.68628	-481.13712	486.15359	1589.73999	-646.00104	269.08459	1540.06555	-751.05341	116.20303	1495.21936	-798.16943	110.89334	1537.92029	-623.21008	35.70071	1420.96472	-467.23483	1678.54211																					 
89	0.880	1356.08276	-360.66281	1638.96155	1487.80762	-349.32996	1639.53479	1371.70190	-491.30698	1580.10803	1500.83020	-478.98340	1585.72131	1436.59949	-483.19302	1429.05237	1462.16846	-516.25684	1101.12915	1436.06055	-368.21008	1354.43933	1439.12146	-326.57434	1180.88831	1528.62280	-551.69824	1263.76904	1274.31299	-435.01102	1375.55493	1216.13684	-476.28317	1175.27026	1213.70178	-506.18219	1066.81091	1194.73877	-517.12787	916.37384	1229.26855	-474.14981	792.27856	1203.81860	-541.52509	799.52124	1199.31970	-518.71625	711.38947	1596.81128	-412.27911	1393.44043	1699.36243	-438.69394	1201.12573	1720.88940	-416.54062	1083.77234	1739.09436	-358.56628	981.31201	1703.27124	-246.44489	883.16479	1745.29297	-293.82788	861.52362	1747.72803	-227.30733	811.42883	1362.25366	-329.50681	947.39441	1579.00256	-346.38406	950.01831	1376.51721	-490.59906	965.66101	1544.92871	-495.28204	972.12073	1290.79333	-331.42249	636.21692	1321.44080	-282.56696	485.05014	1327.61548	-246.53256	231.65105	1365.80408	-195.84526	67.42036	1414.39465	-230.22957	49.00768	1369.89636	-46.70811	58.84936	1623.82410	-447.50980	612.32867	1603.19153	-468.69290	486.21494	1589.36902	-637.64215	272.82077	1539.83997	-746.22186	122.70201	1494.93372	-792.87372	119.46175	1537.53760	-622.76776	35.81622	1420.24158	-457.43506	1679.12622																					 
90	0.890	1355.43982	-350.49435	1640.67468	1487.03296	-339.73178	1640.95581	1370.60120	-480.91641	1581.23267	1499.82947	-468.99396	1586.58044	1435.25085	-472.57083	1430.17224	1460.52649	-504.01483	1101.81946	1434.99304	-357.47183	1355.79199	1438.27551	-315.14825	1182.31848	1526.47046	-540.96423	1264.14624	1273.02710	-423.96234	1376.49707	1214.76379	-464.25861	1175.89941	1212.51331	-493.52716	1067.07312	1193.76318	-503.36655	916.66156	1228.65649	-460.10168	792.79523	1202.99060	-527.18768	799.74335	1198.72778	-503.84647	711.72809	1595.87451	-402.02740	1394.23462	1697.86243	-428.81311	1201.57410	1719.52075	-406.99731	1083.85071	1737.84106	-350.83875	980.19104	1702.22144	-240.92267	879.39520	1744.60815	-288.73746	859.13593	1747.17773	-223.25882	807.71686	1361.76709	-316.72491	948.51501	1578.35559	-334.32858	951.14270	1375.09595	-477.64584	967.56171	1543.58496	-484.45712	973.29608	1289.46082	-321.18942	637.46454	1319.43384	-273.99982	485.78259	1325.40173	-238.79256	232.86877	1364.73071	-191.99600	66.97778	1412.87402	-228.40233	50.19910	1371.85303	-43.02567	54.33090	1623.58411	-435.08566	613.04437	1603.59277	-455.36185	486.57944	1588.88013	-628.27856	277.02771	1539.29944	-740.36804	129.89838	1493.96252	-786.40570	128.88670	1536.99487	-622.07288	36.00780	1419.38477	-447.60715	1680.30823																					 
91	0.900	1354.74170	-340.18842	1642.58264	1486.30457	-329.78018	1642.66467	1369.42578	-470.49088	1582.79224	1498.56934	-458.90961	1587.94922	1433.98206	-461.91495	1431.70288	1458.98840	-492.05170	1103.00500	1433.97534	-346.77002	1357.49866	1437.28735	-303.66733	1184.19324	1524.30176	-529.94830	1264.84412	1271.79321	-412.84122	1377.82373	1213.88599	-451.59686	1176.79590	1211.01685	-480.68564	1068.02795	1192.59558	-489.30362	917.28003	1227.86841	-445.09271	793.79810	1202.07837	-512.27271	800.28925	1197.97229	-488.24182	712.43256	1594.98303	-391.79779	1395.54529	1696.07581	-419.18280	1202.53320	1717.75940	-397.46381	1084.43042	1736.18616	-343.63089	979.39673	1701.13037	-235.99539	875.78357	1743.84277	-284.20752	856.97400	1746.57251	-219.88536	804.13678	1361.10608	-304.14899	950.24884	1577.49976	-322.10110	952.69482	1374.07336	-465.43872	970.13513	1542.35181	-472.54587	975.07727	1288.25037	-310.98273	639.57294	1317.45374	-264.52539	487.10483	1323.23901	-232.80762	233.42174	1364.05164	-189.84335	66.74998	1411.58276	-226.97426	50.79063	1372.67554	-41.22075	50.32793	1623.30334	-421.90820	614.08765	1604.38721	-440.77930	487.18588	1588.30615	-617.90094	281.71674	1538.31897	-733.34344	137.64165	1492.38232	-778.36127	138.86342	1536.30908	-621.21552	36.29289	1418.47400	-437.60684	1681.88647																					 
92	0.910	1353.95935	-329.74588	1644.69202	1485.63623	-319.57458	1644.60339	1368.18433	-459.88168	1584.58752	1497.46875	-448.82092	1589.60864	1432.39734	-450.34830	1433.28528	1457.74976	-480.25897	1104.67444	1432.99902	-335.98920	1359.48462	1436.20447	-292.18988	1186.38330	1522.49609	-518.91943	1265.95313	1270.69897	-401.69891	1379.53394	1212.22083	-439.26520	1178.25293	1209.81787	-467.11401	1069.03064	1191.38098	-474.65378	918.26727	1226.82996	-429.61450	795.15570	1200.84753	-496.53549	801.00714	1197.24597	-471.92975	713.46948	1594.01697	-381.46622	1397.31299	1694.21594	-409.63409	1203.92896	1715.74829	-387.89081	1085.47876	1734.44592	-336.46371	979.03381	1699.95911	-231.56024	872.35944	1743.01660	-280.18420	855.14490	1745.98962	-217.32660	800.79755	1360.15918	-291.97296	952.60400	1576.25586	-309.83084	954.46948	1373.44519	-453.36264	972.59070	1541.77136	-459.61194	976.15424	1286.92993	-300.58990	642.19757	1315.66382	-254.50783	488.79074	1321.33594	-227.71117	234.01013	1363.73706	-189.19676	66.83821	1411.40808	-226.34081	51.22727	1372.01160	-40.35311	48.68251	1623.09399	-407.94296	615.28119	1605.23364	-425.33505	488.30316	1587.56433	-606.16577	286.67563	1537.14600	-725.19989	146.07513	1490.49707	-768.67664	149.73264	1535.67981	-620.53528	36.64840	1417.52112	-427.45776	1683.71179																					 
93	0.920	1353.24609	-319.29001	1647.01465	1484.88733	-309.47867	1646.77808	1367.01074	-449.41306	1586.64001	1496.22424	-438.63718	1591.55591	1431.57959	-440.54797	1435.36230	1456.73035	-468.54858	1106.61694	1432.05164	-325.18338	1361.74561	1435.11670	-280.68744	1188.76147	1520.74963	-507.58832	1267.33521	1269.64380	-390.53073	1381.52966	1210.96350	-426.51520	1179.91199	1208.55640	-453.20013	1070.30835	1190.11780	-459.64850	919.59308	1225.71448	-413.62158	796.91315	1199.54993	-480.56659	802.19366	1196.15540	-455.00385	714.83167	1593.00793	-371.10196	1399.40466	1692.31323	-399.98102	1205.68909	1713.51758	-378.30783	1086.92798	1732.73596	-329.30154	979.09668	1698.78479	-227.73769	869.18103	1742.08545	-276.69659	853.70715	1745.26392	-215.29147	797.61731	1358.95813	-280.44711	955.35846	1574.56641	-297.54239	956.26141	1373.02783	-442.13297	975.43994	1541.11511	-447.05493	977.85315	1285.45520	-289.51089	644.93359	1314.46228	-244.79439	490.53156	1320.46313	-222.69502	234.86292	1364.24902	-187.78136	67.01347	1411.44458	-225.62398	51.88199	1370.96814	-40.04960	47.74952	1622.99377	-393.09845	616.54547	1606.58105	-408.40640	489.25919	1586.91235	-593.18463	291.90753	1535.91968	-715.59534	155.17303	1488.54565	-757.12537	161.16193	1534.61560	-620.04675	36.62058	1416.49377	-417.27222	1685.78577																					 
